HIERARCHY
ROOT Hips
{
	OFFSET 0.000000 0.000000 0.000000
	CHANNELS 6 Xposition Yposition Zposition Zrotation Yrotation Xrotation 
	JOINT LHipJoint
	{
		OFFSET 0.000000 0.000000 0.000000
		CHANNELS 3 Zrotation Yrotation Xrotation
		JOINT LeftUpLeg
		{
			OFFSET 1.363060 -1.794630 0.839290
			CHANNELS 3 Zrotation Yrotation Xrotation
			JOINT LeftLeg
			{
				OFFSET 2.448110 -6.726130 0.000000
				CHANNELS 3 Zrotation Yrotation Xrotation
				JOINT LeftFoot
				{
					OFFSET 2.562200 -7.039590 0.000000
					CHANNELS 3 Zrotation Yrotation Xrotation
					JOINT LeftToeBase
					{
						OFFSET 0.157640 -0.433110 2.322550
						CHANNELS 3 Zrotation Yrotation Xrotation
						End Site
						{
							OFFSET 0.000000 0.000000 0.000000
						}
					}
				}
			}
		}
	}
	JOINT RHipJoint
	{
		OFFSET 0.000000 0.000000 0.000000
		CHANNELS 3 Zrotation Yrotation Xrotation
		JOINT RightUpLeg
		{
			OFFSET -1.305520 -1.794630 0.839290
			CHANNELS 3 Zrotation Yrotation Xrotation
			JOINT RightLeg
			{
				OFFSET -2.542530 -6.985550 0.000000
				CHANNELS 3 Zrotation Yrotation Xrotation
				JOINT RightFoot
				{
					OFFSET -2.568260 -7.056230 0.000000
					CHANNELS 3 Zrotation Yrotation Xrotation
					JOINT RightToeBase
					{
						OFFSET -0.164730 -0.452590 2.363150
						CHANNELS 3 Zrotation Yrotation Xrotation
						End Site
						{
							OFFSET 0.000000 0.000000 0.000000
						}
					}
				}
			}
		}
	}
	JOINT LowerBack
	{
		OFFSET 0.000000 0.000000 0.000000
		CHANNELS 3 Zrotation Yrotation Xrotation
		JOINT Spine
		{
			OFFSET 0.028270 2.035590 -0.193380
			CHANNELS 3 Zrotation Yrotation Xrotation
			JOINT Spine1
			{
				OFFSET 0.056720 2.048850 -0.042750
				CHANNELS 3 Zrotation Yrotation Xrotation
				JOINT Neck
				{
					OFFSET 0.000000 0.000000 0.000000
					CHANNELS 3 Zrotation Yrotation Xrotation
					JOINT Neck1
					{
						OFFSET -0.054170 1.746240 0.172020
						CHANNELS 3 Zrotation Yrotation Xrotation
						JOINT Head
						{
							OFFSET 0.104070 1.761360 -0.123970
							CHANNELS 3 Zrotation Yrotation Xrotation
							End Site
							{
								OFFSET 0.000000 0.000000 0.000000
							}
						}
					}
				}
				JOINT LeftShoulder
				{
					OFFSET 0.000000 0.000000 0.000000
					CHANNELS 3 Zrotation Yrotation Xrotation
					JOINT LeftArm
					{
						OFFSET 3.362410 1.200890 -0.311210
						CHANNELS 3 Zrotation Yrotation Xrotation
						JOINT LeftForeArm
						{
							OFFSET 4.983000 -0.000000 -0.000000
							CHANNELS 3 Zrotation Yrotation Xrotation
							JOINT LeftHand
							{
								OFFSET 3.483560 -0.000000 -0.000000
								CHANNELS 3 Zrotation Yrotation Xrotation
								JOINT LeftFingerBase
								{
									OFFSET 0.000000 0.000000 0.000000
									CHANNELS 3 Zrotation Yrotation Xrotation
									JOINT LeftHandIndex1
									{
										OFFSET 0.715260 -0.000000 -0.000000
										CHANNELS 3 Zrotation Yrotation Xrotation
										End Site
										{
											OFFSET 0.000000 0.000000 0.000000
										}
									}
								}
								JOINT LThumb
								{
									OFFSET 0.000000 0.000000 0.000000
									CHANNELS 3 Zrotation Yrotation Xrotation
									End Site
									{
										OFFSET 0.000000 0.000000 0.000000
									}
								}
							}
						}
					}
				}
				JOINT RightShoulder
				{
					OFFSET 0.000000 0.000000 0.000000
					CHANNELS 3 Zrotation Yrotation Xrotation
					JOINT RightArm
					{
						OFFSET -3.136600 1.374050 -0.404650
						CHANNELS 3 Zrotation Yrotation Xrotation
						JOINT RightForeArm
						{
							OFFSET -5.241900 -0.000000 -0.000000
							CHANNELS 3 Zrotation Yrotation Xrotation
							JOINT RightHand
							{
								OFFSET -3.444170 -0.000000 -0.000000
								CHANNELS 3 Zrotation Yrotation Xrotation
								JOINT RightFingerBase
								{
									OFFSET 0.000000 0.000000 0.000000
									CHANNELS 3 Zrotation Yrotation Xrotation
									JOINT RightHandIndex1
									{
										OFFSET -0.622530 -0.000000 -0.000000
										CHANNELS 3 Zrotation Yrotation Xrotation
										End Site
										{
											OFFSET 0.000000 0.000000 0.000000
										}
									}
								}
								JOINT RThumb
								{
									OFFSET 0.000000 0.000000 0.000000
									CHANNELS 3 Zrotation Yrotation Xrotation
									End Site
									{
										OFFSET 0.000000 0.000000 0.000000
									}
								}
							}
						}
					}
				}
			}
		}
	}
}
MOTION
Frames: 10
Frame Time: 0.008333
52.446210 17.331141 -5.806887 -59.548456 -86.556910 88.323609 2.815304 -0.532324 -0.963509 -16.276836 -1.139178 -37.427385 -0.566669 5.486664 12.922984 -0.167257 4.298699 5.268578 0.153200 -2.522500 -6.951900 -2.851075 1.396325 -1.053106 14.749220 19.528893 -39.358108 -0.941380 -10.681689 25.998354 2.205929 -13.319682 -11.360255 -0.401100 -4.065900 11.262100 3.881935 -0.728936 20.051392 1.368303 -0.059071 -1.207622 -2.015978 -0.201915 -6.192748 -1.223018 0.925147 -2.788574 6.505118 0.156196 0.101049 0.330300 -0.112800 -1.095700 -4.837928 -6.444659 1.246896 -76.875941 0.364334 28.711945 18.065125 -28.683469 -6.063450 -1.022374 -1.259897 -29.116181 18.635601 11.665238 4.429100 -7.125000 0.000000 0.000000 -6.422800 42.849400 0.342400 6.811348 5.608672 0.845717 77.256507 -0.700268 25.232229 -17.161621 28.223104 -5.419204 1.141218 -0.102367 -2.954884 -20.766635 -6.909666 2.680300 7.125000 0.000000 0.000000 4.129000 -37.153700 0.798800 
52.439675 17.330933 -5.808650 -59.564626 -86.541159 88.313189 2.817402 -0.529300 -0.961665 -16.260335 -1.120545 -37.385622 -0.564734 5.489124 12.936042 -0.166501 4.285306 5.240794 0.152300 -2.515000 -6.931200 -2.845142 1.395222 -1.050392 14.793613 19.512087 -39.300310 -0.940563 -10.676930 25.991207 2.213213 -13.347618 -11.361668 -0.383600 -3.977400 11.013100 3.925232 -0.693418 20.041830 1.354238 -0.006984 -1.212682 -2.118452 -0.177012 -6.207795 -1.120889 0.870333 -2.802261 6.504374 0.083555 0.130315 0.312200 -0.148500 -1.072200 -4.844129 -6.443185 1.246657 -76.813375 0.373040 28.759639 17.928161 -28.539126 -5.990914 -1.027843 -1.247185 -29.028565 18.671473 11.477577 4.366400 -7.125000 0.000000 0.000000 -6.357000 42.645100 0.371000 6.805446 5.617390 0.834755 77.512628 -0.766713 24.573338 -16.840204 27.884980 -5.284669 1.149365 -0.096980 -3.026636 -20.708528 -7.041973 2.727100 7.125000 0.000000 0.000000 4.184800 -37.295100 0.795100 
52.433970 17.331556 -5.810829 -59.002625 -86.516341 87.733585 2.818007 -0.526809 -0.960055 -16.237250 -1.138535 -37.338222 -0.564930 5.486108 12.930363 -0.165514 4.277158 5.232659 0.154600 -2.533400 -6.982300 -2.842506 1.394627 -1.048370 14.830734 19.495584 -39.254187 -0.938707 -10.675495 25.997056 2.170464 -13.183438 -11.445310 -0.433600 -4.225800 11.712900 3.948640 -0.704969 20.014207 1.357685 -0.016156 -1.216423 -2.117319 -0.182658 -6.215910 -1.111360 0.856348 -2.785801 6.497958 0.063920 0.128748 0.306700 -0.158900 -1.077300 -4.853258 -6.450947 1.251414 -76.808674 0.162724 28.663098 17.639718 -28.226990 -5.848449 -1.039271 -1.248134 -28.973000 18.672041 11.507336 4.377900 -7.125000 0.000000 0.000000 -6.352300 42.672800 0.366400 6.811381 5.622780 0.829004 77.661630 -0.835877 24.045273 -16.503450 27.527834 -5.142638 1.158888 -0.087534 -3.101685 -20.652042 -7.187334 2.780900 7.125000 0.000000 0.000000 4.239800 -37.454900 0.789000 
52.427331 17.331245 -5.812489 -58.657626 -86.509147 87.364535 2.818041 -0.524523 -0.958546 -16.233585 -1.145350 -37.290681 -0.564169 5.485305 12.930487 -0.169981 4.295173 5.220628 0.160500 -2.581400 -7.115400 -2.838735 1.394415 -1.047066 14.841253 19.493526 -39.199779 -0.939612 -10.673458 25.996100 2.187910 -13.257208 -11.468606 -0.410300 -4.111900 11.391700 3.960330 -0.707596 19.983089 1.357502 -0.018283 -1.219093 -2.124511 -0.183427 -6.215651 -1.111075 0.853321 -2.792464 6.494693 0.060135 0.118264 0.306000 -0.161300 -1.080500 -4.854640 -6.450460 1.250539 -76.858620 0.188662 28.561793 17.515004 -28.099459 -5.790668 -1.042407 -1.254310 -28.897302 18.648027 11.620383 4.415500 -7.125000 0.000000 0.000000 -6.390500 42.794700 0.349300 6.809870 5.622915 0.822536 77.827494 -0.928653 23.552599 -16.207745 27.212765 -5.017514 1.165099 -0.069333 -3.103004 -20.448623 -7.448583 2.862600 7.125000 0.000000 0.000000 4.435800 -37.740300 0.794600 
52.420900 17.331037 -5.814148 -58.335970 -86.492297 87.019822 2.818336 -0.522157 -0.956783 -16.218957 -1.151097 -37.246621 -0.563312 5.484683 12.931735 -0.172014 4.300897 5.209507 0.164800 -2.615500 -7.210000 -2.834966 1.393903 -1.045170 14.868389 19.484665 -39.148615 -0.939893 -10.671096 25.995110 2.195370 -13.289517 -11.491434 -0.398800 -4.054400 11.229700 3.985017 -0.708321 19.955027 1.356504 -0.014858 -1.223256 -2.143646 -0.182120 -6.221702 -1.098455 0.843155 -2.795240 6.495076 0.046894 0.121510 0.304900 -0.167700 -1.076900 -4.860019 -6.452084 1.250806 -76.875357 0.144841 28.488079 17.339343 -27.912469 -5.705515 -1.048635 -1.253827 -28.837147 18.650352 11.629517 4.419600 -7.125000 0.000000 0.000000 -6.385600 42.802500 0.347800 6.810673 5.626114 0.815949 77.986088 -1.014903 23.084256 -15.884811 26.868214 -4.883731 1.174965 -0.059034 -3.117701 -20.386279 -7.637363 2.932000 7.125000 0.000000 0.000000 4.501500 -37.947400 0.783500 
52.414468 17.330933 -5.815704 -58.034010 -86.473971 86.693999 2.818249 -0.519815 -0.954790 -16.202542 -1.156604 -37.203186 -0.562387 5.484825 12.935117 -0.173718 4.304923 5.197377 0.169100 -2.649000 -7.303100 -2.831414 1.393253 -1.043343 14.899522 19.470934 -39.097767 -0.940105 -10.667972 25.992349 2.205969 -13.333339 -11.503741 -0.383200 -3.975500 11.007700 4.010735 -0.712731 19.925110 1.356813 -0.015729 -1.227872 -2.155599 -0.183010 -6.228663 -1.094621 0.837480 -2.797187 6.496452 0.040062 0.125221 0.305900 -0.170800 -1.073300 -4.865229 -6.453438 1.250349 -76.901767 0.115621 28.408207 17.169683 -27.732151 -5.624171 -1.054539 -1.253012 -28.790302 18.655575 11.633189 4.422200 -7.125000 0.000000 0.000000 -6.377300 42.804600 0.347000 6.812899 5.628511 0.809920 78.121511 -1.106848 22.686588 -15.559119 26.519771 -4.749303 1.184872 -0.048968 -3.125458 -20.330988 -7.817328 2.998700 7.125000 0.000000 0.000000 4.560700 -38.145400 0.771700 
52.408141 17.330726 -5.816845 -57.817500 -86.453824 86.451513 2.817830 -0.517475 -0.952467 -16.183017 -1.157821 -37.163405 -0.560636 5.487850 12.946909 -0.174946 4.304987 5.179780 0.172700 -2.676900 -7.380400 -2.828139 1.392279 -1.041494 14.938397 19.451019 -39.045129 -0.939828 -10.663464 25.985620 2.218508 -13.382418 -11.501421 -0.365300 -3.882300 10.745700 4.038690 -0.718026 19.896392 1.357769 -0.017056 -1.233175 -2.165292 -0.184255 -6.238451 -1.092574 0.834180 -2.798823 6.496332 0.036250 0.131164 0.306100 -0.172200 -1.068300 -4.869731 -6.454417 1.248816 -76.938049 0.110983 28.327741 17.011157 -27.564219 -5.548514 -1.059857 -1.251381 -28.750044 18.663128 11.626143 4.421100 -7.125000 0.000000 0.000000 -6.365600 42.794900 0.347900 6.816560 5.630380 0.804232 78.235071 -1.203217 22.359097 -15.233490 26.170165 -4.614776 1.193297 -0.039774 -3.133420 -20.265620 -7.965391 3.050500 7.125000 0.000000 0.000000 4.626600 -38.307700 0.764400 
52.401813 17.330726 -5.817883 -57.706101 -86.434738 86.315788 2.816774 -0.515233 -0.949788 -16.163288 -1.153579 -37.127194 -0.558813 5.491152 12.959808 -0.175470 4.301386 5.161531 0.175000 -2.695000 -7.430800 -2.825561 1.390932 -1.039404 14.982212 19.425386 -38.997517 -0.939250 -10.658691 25.978430 2.226344 -13.411189 -11.490131 -0.351600 -3.809500 10.541400 4.065259 -0.722897 19.865740 1.359402 -0.017928 -1.239634 -2.170498 -0.185273 -6.250892 -1.093516 0.833532 -2.802635 6.495608 0.035968 0.142031 0.306000 -0.171500 -1.059800 -4.873814 -6.455435 1.246122 -76.983965 0.118654 28.246659 16.855040 -27.398959 -5.474371 -1.065062 -1.249130 -28.714202 18.673126 11.612752 4.418100 -7.125000 0.000000 0.000000 -6.350800 42.778100 0.349700 6.822059 5.632210 0.798744 78.323803 -1.302731 22.097406 -14.905424 25.816079 -4.478696 1.198826 -0.033478 -3.126936 -20.186668 -8.046722 3.072900 7.125000 0.000000 0.000000 4.699300 -38.395600 0.766400 
52.395174 17.331037 -5.819127 -57.468558 -86.416830 86.044384 2.815598 -0.512404 -0.946898 -16.145685 -1.151741 -37.074841 -0.557266 5.493082 12.969551 -0.175156 4.292854 5.140656 0.176100 -2.703200 -7.453500 -2.822535 1.389651 -1.036946 15.019209 19.411830 -38.932064 -0.938766 -10.654178 25.973615 2.231762 -13.434139 -11.508904 -0.343900 -3.768300 10.425600 4.085939 -0.732271 19.842813 1.362559 -0.025208 -1.246134 -2.165700 -0.189356 -6.266429 -1.095054 0.835590 -2.806329 6.491246 0.039066 0.155393 0.303000 -0.169100 -1.049700 -4.876937 -6.456616 1.242781 -77.039416 0.139814 28.165999 16.703212 -27.239194 -5.403110 -1.070120 -1.247415 -28.678542 18.682791 11.610606 4.419200 -7.125000 0.000000 0.000000 -6.338200 42.773800 0.349700 6.829528 5.633696 0.793518 78.389700 -1.408455 21.891432 -14.593277 25.476447 -4.348026 1.199671 -0.026803 -3.107454 -20.036055 -8.087773 3.068000 7.125000 0.000000 0.000000 4.832900 -38.436800 0.783400 
52.388017 17.331659 -5.820580 -57.162310 -86.401521 85.695804 2.814023 -0.509087 -0.943928 -16.131633 -1.148321 -37.005874 -0.556380 5.492154 12.972694 -0.174505 4.281972 5.120998 0.176000 -2.702700 -7.452000 -2.819258 1.388327 -1.033929 15.049323 19.412894 -38.850254 -0.938690 -10.650873 25.973075 2.232383 -13.442045 -11.559215 -0.343900 -3.768300 10.425700 4.099368 -0.742112 19.826142 1.366464 -0.033986 -1.252664 -2.153662 -0.194019 -6.285291 -1.095605 0.837843 -2.807681 6.483656 0.041689 0.168775 0.297200 -0.167100 -1.039800 -4.879129 -6.457871 1.238991 -77.102219 0.175322 28.092777 16.555616 -27.084854 -5.334302 -1.074943 -1.245963 -28.635536 18.690008 11.616849 4.422800 -7.125000 0.000000 0.000000 -6.329600 42.778300 0.348500 6.838419 5.634721 0.788407 78.439672 -1.522418 21.726227 -14.295715 25.150314 -4.222579 1.195998 -0.022472 -3.037393 -19.840403 -8.071495 3.033200 7.125000 0.000000 0.000000 5.002300 -38.413200 0.813900 
